<?xml version="1.0" encoding="UTF-8"?>
<svg xmlns="http://www.w3.org/2000/svg" viewBox="0 0 64 64" width="512" height="512"><g id="Hand-Heartbeat-Mediacl_care-Health_care-Care" data-name="Hand-Heartbeat-Mediacl care-Health care-Care"><path d="M52,20a1,1,0,0,1-1,1H48a.988.988,0,0,1-.89-.55l-.7-1.4L43.98,31.2A.988.988,0,0,1,43,32h-.03a1.006,1.006,0,0,1-.96-.87l-2.2-16.1L37.98,24.2a1,1,0,0,1-1.92.15L33.87,18.5l-.98,1.95A.988.988,0,0,1,32,21H29a1,1,0,0,1,0-2h2.38l1.73-3.45a1,1,0,0,1,.94-.55,1.01,1.01,0,0,1,.89.65l1.77,4.72L39.02,8.8a1,1,0,0,1,1.97.07l2.2,16.1,1.83-9.17a1,1,0,0,1,1.87-.25L48.62,19H51A1,1,0,0,1,52,20Z"/><path d="M48,11a1,1,0,0,1-2,0,7.008,7.008,0,0,0-7-7,6.836,6.836,0,0,0-6.12,3.48,1.047,1.047,0,0,1-1.76,0A6.836,6.836,0,0,0,25,4a7.008,7.008,0,0,0-7,7c0,7.4,11.15,18.06,14,20.66.37-.34.87-.81,1.47-1.38a1.008,1.008,0,0,1,1.42.03,1,1,0,0,1-.03,1.41c-1.31,1.26-2.17,2-2.2,2.04a1.027,1.027,0,0,1-1.32,0C30.72,33.21,16,20.35,16,11A9.069,9.069,0,0,1,32,5.22,9.069,9.069,0,0,1,48,11Z"/><path d="M14.74,61.67A1,1,0,0,1,14,62a1.008,1.008,0,0,1-.67-.26l-11-10a1,1,0,0,1,1.34-1.48l11,10A1,1,0,0,1,14.74,61.67Z"/><path d="M60.24,30.41a4.833,4.833,0,0,0-3.51-1.55,5.264,5.264,0,0,0-3.85,1.54L42.77,40.5A5.013,5.013,0,0,0,38,37H19.66a4.994,4.994,0,0,0-3.54,1.46L7.29,47.29a1.011,1.011,0,0,0-.29.73.978.978,0,0,0,.33.72l11,10A1.008,1.008,0,0,0,19,59a1.029,1.029,0,0,0,.6-.2L23.33,56H39.34a4.994,4.994,0,0,0,3.54-1.46L60.09,37.33a5.081,5.081,0,0,0,1.47-3.54A5,5,0,0,0,60.24,30.41Zm-1.57,5.5L41.46,53.12a2.956,2.956,0,0,1-2.12.88H23a.984.984,0,0,0-.6.2l-3.34,2.5L9.45,47.97l8.09-8.09A2.956,2.956,0,0,1,19.66,39H38a3,3,0,0,1,0,6H24a1,1,0,0,0,0,2H38a5.013,5.013,0,0,0,4.84-3.73L54.29,31.81a3.248,3.248,0,0,1,2.4-.95,2.817,2.817,0,0,1,2.07.9,2.973,2.973,0,0,1-.09,4.15Z"/></g></svg>
