<svg id="Layer_5" enable-background="new 0 0 64 64" height="512" viewBox="0 0 64 64" width="512" xmlns="http://www.w3.org/2000/svg"><g><path d="m63 40.165c0-4.212-1.692-8.053-4.476-10.845 1.584-1.885 2.476-4.301 2.476-6.776 0-1.132-.182-2.25-.54-3.325l-.947-2.842c-.34-1.021-.513-2.085-.513-3.162v-.215c0-6.617-5.383-12-12-12s-12 5.383-12 12v.215c0 1.077-.173 2.141-.513 3.162l-.948 2.842c-.357 1.074-.539 2.193-.539 3.325 0 2.478.894 4.896 2.481 6.782-.41.414-.793.858-1.158 1.321-.568-.406-1.113-.85-1.616-1.354l-.707-.707-.707.707c-.503.503-1.049.948-1.617 1.354-2.226-2.823-5.305-4.756-8.828-5.504l-.208-1.038c1.697-.874 3.042-2.331 3.767-4.105h.593c2.206 0 4-1.794 4-4 0-.789-.237-1.521-.633-2.142.412-1.079.633-2.209.633-3.373 0-5.23-4.255-9.485-9.485-9.485h-5.029c-5.231 0-9.486 4.255-9.486 9.485 0 1.164.221 2.293.634 3.373-.397.621-.634 1.353-.634 2.142 0 2.206 1.794 4 4 4h.525c.704 1.828 2.076 3.321 3.818 4.185l-.192.958c-7.082 1.506-12.151 7.716-12.151 15.027 0 4.235 2.449 7.9 6 9.679v13.151h20v-1.461c.223.123.444.245.677.371 1.317.713 2.812 1.09 4.323 1.09h27.181l-1.372-8.232c-.265-1.592-.841-3.136-1.652-4.538 4.002-1.593 6.843-5.498 6.843-10.065zm-27.563-20.313.947-2.842c.409-1.226.616-2.502.616-3.795v-.215c0-5.514 4.486-10 10-10s10 4.486 10 10v.215c0 1.293.207 2.569.616 3.795l.947 2.841c.29.871.437 1.776.437 2.693 0 1.99-.714 3.932-1.979 5.453-1.775-1.366-3.864-2.363-6.172-2.854l-.208-1.038c2.585-1.331 4.359-4.014 4.359-7.107v-4.998l-.067-2h-3.525c-2.75 0-5.501-.655-7.957-1.893l-.372-.188-.395.132c-2.204.735-3.684 2.789-3.684 5.111v4.047c0 3.057 1.774 5.701 4.343 6.976l-.192.958c-2.279.484-4.368 1.469-6.167 2.861-1.269-1.522-1.984-3.467-1.984-5.46 0-.917.147-1.822.437-2.692zm10.184 23.148c-.535-3.147-1.094-6.232-1.394-7.867-.162-.878-.757-1.577-1.538-1.913.023-.073.041-.147.063-.22h8.494c.728 2.401 2.01 4.6 3.754 6.41v.59c0 1.654-1.346 3-3 3zm5.625-12h-8.491l-.966-3.383c.764-.276 1.556-.494 2.376-.631l.682-.113.405-2.027c.496.1 1.011.154 1.538.154h.176c.61 0 1.202-.074 1.774-.203l.415 2.076.682.113c.823.137 1.618.347 2.379.622zm-4.28-8h-.176c-3.192 0-5.79-2.598-5.79-5.791v-4.047c0-1.33.771-2.52 1.956-3.07 2.629 1.249 5.541 1.908 8.451 1.908h1.592l.001 4.998c0 3.31-2.707 6.002-6.034 6.002zm-7.02 5.453 1.018 3.559c-.087.319-.208.626-.316.939-1.618-.127-3.17-.56-4.598-1.268 1.093-1.334 2.413-2.42 3.896-3.23zm-11.996 3.23c-1.724.854-3.629 1.317-5.611 1.317-.046 0-.09.01-.135.012l.52-5.195c2.029.83 3.815 2.145 5.226 3.866zm-7.461-4.554c.096.021.192.04.287.063l-.561 5.609-1.956-1.956zm4.511-9.129h-.07c.042-.329.07-.662.07-1.002v-2.998c1.103 0 2 .897 2 2s-.897 2-2 2zm-16 0c-1.103 0-2-.897-2-2s.897-2 2-2v3.209c0 .267.014.531.04.791zm2-.791v-4.974c0-.998.555-1.895 1.447-2.341l-.895-1.789c-1.502.752-2.452 2.231-2.536 3.895h-.016c-.625 0-1.21.157-1.737.414-.168-.627-.263-1.27-.263-1.929 0-4.127 3.357-7.485 7.485-7.485h5.029c4.129 0 7.486 3.358 7.486 7.485 0 .658-.095 1.302-.262 1.928-.528-.256-1.113-.413-1.738-.413 0-3.678-3.533-4.898-3.684-4.949l-.638 1.896c.095.032 2.322.829 2.322 3.053v4.998c0 3.31-2.707 6.002-6.034 6.002h-.176c-3.192 0-5.79-2.598-5.79-5.791zm5.79 7.791h.176c.61 0 1.202-.074 1.774-.203l.204 1.02-1.944 3.24-1.944-3.24.194-.971c.498.1 1.013.154 1.54.154zm-3.281 2.126 2.232 3.719-1.956 1.956-.562-5.614c.095-.023.191-.041.286-.061zm-2.232.692.938 9.381 4.785-4.785 2.765 2.765c-.303 1.649-.857 4.707-1.385 7.821h-6.38c-1.654 0-3-1.346-3-3v-5h-2v4h-3.948c.432-5.035 3.646-9.308 8.225-11.182zm-8.235 13.182h4.059c.465 2.279 2.484 4 4.899 4h7c1.103 0 2 .897 2 2s-.897 2-2 2h-7.17c-4.588 0-8.366-3.517-8.788-8zm8.788 10h5.331c-.107.907-.161 1.571-.161 2h-8v-2.388c.904.245 1.85.388 2.83.388zm13.17 10h-6.933c.18-1.236.752-2.405 1.64-3.293l-1.414-1.414c-.513.513-.944 1.097-1.293 1.726-.349-.629-.78-1.214-1.293-1.726l-1.414 1.414c.888.888 1.459 2.057 1.64 3.293h-6.933v-6h8.832c.936 1.185 2.927 2.917 7.168 5.405zm3.628-.85c-7.615-4.121-9.628-6.479-9.628-7.15 0-.278.035-.858.177-2.018 2.123-.095 3.823-1.837 3.823-3.982 0-1.725-1.102-3.184-2.635-3.744.527-3.102 1.077-6.142 1.375-7.761.053-.287.305-.495.603-.495 3.59 0 6.983-1.282 9.657-3.63 2.674 2.348 6.067 3.63 9.661 3.63.294 0 .546.208.599.494.297 1.617.848 4.654 1.376 7.761-1.533.561-2.636 2.02-2.636 3.745 0 2.145 1.7 3.887 3.823 3.982.142 1.16.177 1.74.177 2.018 0 .671-2.013 3.029-9.628 7.15-2.053 1.112-4.691 1.112-6.744 0zm27.208-5.054.983 5.904h-18.854c9.029-5.118 9.035-7.268 9.035-8 0-.429-.054-1.093-.161-2h5.331c.685 0 1.352-.071 2.002-.193.83 1.3 1.411 2.77 1.664 4.289zm-3.666-6.096h-7.17c-1.103 0-2-.897-2-2s.897-2 2-2h7c2.757 0 5-2.243 5-5v-1.414l-.378-.378c-1.717-1.717-2.953-3.854-3.586-6.195l1.021-3.575c4.192 2.284 6.943 6.708 6.943 11.732 0 4.869-3.961 8.83-8.83 8.83z"/><path d="m15 12h2c0-3.678-3.533-4.898-3.684-4.949l-.638 1.896c.095.032 2.322.829 2.322 3.053z"/><path d="m19 12h2c0-3.678-3.533-4.898-3.684-4.949l-.638 1.896c.095.032 2.322.829 2.322 3.053z"/><path d="m20.789 18.658.105-.211-1.789-.895-.105.212c-.381.762-1.147 1.236-2 1.236s-1.619-.474-2-1.236l-.105-.211-1.789.895.105.21c.722 1.445 2.174 2.342 3.789 2.342s3.067-.897 3.789-2.342z"/><circle cx="14" cy="14" r="1"/><circle cx="20" cy="14" r="1"/><path d="m49 17.764c-.381.762-1.147 1.236-2 1.236s-1.619-.474-2-1.236l-.105-.211-1.789.895.105.21c.722 1.445 2.174 2.342 3.789 2.342s3.067-.897 3.789-2.342l.105-.211-1.789-.895z"/><circle cx="44" cy="14" r="1"/><circle cx="50" cy="14" r="1"/><path d="m35 54v-4h4v-6h-4v-4h-6v4h-4v6h4v4zm-8-6v-2h4v-4h2v4h4v2h-4v4h-2v-4z"/></g></svg>