<?xml version="1.0"?>
<svg xmlns="http://www.w3.org/2000/svg" id="Line_cutting_cut_Ex" data-name="Line cutting cut Ex" width="512" height="512" viewBox="0 0 512 512"><g><path d="M32,330.5039V256H16v76.4941a8.0011,8.0011,0,0,0,.9326,3.7486L80,455.1509v46.6719H96V453.1606a8.001,8.001,0,0,0-.9326-3.7485Z"/><path d="M151.57,332.4106,123.918,307.5239A39.9975,39.9975,0,0,0,80,301.1123V229.165a55.3418,55.3418,0,0,0-56.1113-55.3369A8,8,0,0,0,16,181.8271V240H32V190.5a39.3772,39.3772,0,0,1,32,38.665V317.12a7.98,7.98,0,0,0,1.2993,4.4116l.0049.0079.0054.0078.0068.01.0044.0069.0078.0117.0034.0054.0118.017,32,48a8,8,0,1,0,13.3124-8.875L82.3955,318.3315a23.9971,23.9971,0,0,1,30.8193,1.085l27.6519,24.8867a72.3344,72.3344,0,0,1,23.5386,60.0362l-4.3726,48.0971q-.033.361-.0327.7241v48.6622h16V453.5234l4.34-47.7358A88.407,88.407,0,0,0,151.57,332.4106Z"/><path d="M488.1113,173.8281A55.3418,55.3418,0,0,0,432,229.165v71.9468a40.0052,40.0052,0,0,0-43.918,6.4121L360.43,332.4106a88.407,88.407,0,0,0-28.77,73.377L336,453.5234v48.2994h16V453.1606q0-.3625-.0327-.7241l-4.3726-48.0971a72.3344,72.3344,0,0,1,23.5386-60.0362l27.6519-24.8867a23.999,23.999,0,0,1,30.8193-1.085l-28.2607,42.3916a8,8,0,1,0,13.3124,8.875l32-48,.0118-.017.0034-.0054.0078-.0117.0044-.0069.0068-.01.0054-.0078.0049-.0079A7.98,7.98,0,0,0,448,317.12V229.165A39.3784,39.3784,0,0,1,480,190.5V330.5039L416.9326,449.4121A8.001,8.001,0,0,0,416,453.1606v48.6622h16V455.1509l63.0674-118.9082A8.0011,8.0011,0,0,0,496,332.4941V181.8271A8,8,0,0,0,488.1113,173.8281Z"/><path d="M393.3516,200.397l-15.69-3.1382a184.37,184.37,0,0,1-85.7607,121.6933L256,340.4932l-35.9019-21.5411a184.37,184.37,0,0,1-85.76-121.6933L114.189,96.5127,256,32.6978,397.811,96.5127l-17.1836,85.9185,15.6895,3.1376L414.75,93.4014a8,8,0,0,0-4.562-8.8643L259.2827,16.6294a7.999,7.999,0,0,0-6.5654,0L101.812,84.5371a8,8,0,0,0-4.562,8.8643L118.6484,200.397a200.403,200.403,0,0,0,93.2178,132.2749l40.0176,24.0107a8,8,0,0,0,8.2324,0l40.0171-24.0107A200.402,200.402,0,0,0,393.3516,200.397Z"/><path d="M300.7173,87.9111,307.2827,73.32l-48-21.6a8,8,0,0,0-6.5654,0l-48,21.6,6.5654,14.5908L256,67.7881Z"/><path d="M256,303.1748l-19.4375-11.6621a151.8913,151.8913,0,0,1-17.0776-11.9194l-10.0381,12.4589a167.8043,167.8043,0,0,0,18.8838,13.18l23.5537,14.1319a8,8,0,0,0,8.2319,0L283.67,305.2319a167.86,167.86,0,0,0,18.8828-13.18l-10.0381-12.4589a151.8644,151.8644,0,0,1-17.0771,11.9189Z"/><path d="M346.228,182.0693l19.5684-29.4028a7.9792,7.9792,0,0,0,.6938-1.2812,18.7,18.7,0,0,0-14.726-25.5064,7.9009,7.9009,0,0,0-1.7281-.0181l-28.8955,2.8326a24.3185,24.3185,0,0,0-14.2485,3.146l-20.1983,11.6752L217.7354,128.19a8.0048,8.0048,0,0,0-6.1836,1.16l-23.2242,15.5361a8,8,0,0,0,.3941,13.5459l45.21,26.5772-27.7851,22.228L178.04,199.8267a8.0019,8.0019,0,0,0-5.295.4277l-16,7.1279a8.0006,8.0006,0,0,0-2.4961,12.8687l40,41.3691a8.0011,8.0011,0,0,0,9.67,1.4136l139.5684-78.4219A7.9944,7.9944,0,0,0,346.228,182.0693ZM201.4614,246.0615l-27.7651-28.7153,2.9868-1.3306,29.2773,7.72a7.991,7.991,0,0,0,7.0372-1.4883l40-32a8,8,0,0,0-.9434-13.1436l-44.2363-26.0049,9.7866-6.5468,68.66,15.2578a8,8,0,0,0,5.7388-.8833l22.8916-13.232a8.4661,8.4661,0,0,1,5.293-1.018,8.0219,8.0219,0,0,0,1.7285.018l28.4233-2.7866a2.8717,2.8717,0,0,1,1.1446,1.1367,2.8026,2.8026,0,0,1,.4043,1.6416l-17.9151,26.9185Z"/></g></svg>
