<svg id="Capa_1" enable-background="new 0 0 512 512" height="512" viewBox="0 0 512 512" width="512" xmlns="http://www.w3.org/2000/svg"><g><path d="m497 175c-18.954 0-35.995-10.532-44.473-27.485l-2.11-4.222c-2.541-5.083-7.735-8.293-13.417-8.293h-80c-5.682 0-10.876 3.21-13.417 8.292l-2.11 4.222c-1.508 3.016-3.292 5.824-5.305 8.411-19.016-22.499-47.227-35.925-77.205-35.925h-.729c-2.271-9.572-6.656-18.33-12.645-25.75l56.218-64.25h73.193c8.284 0 15-6.716 15-15s-6.716-15-15-15h-80c-4.325 0-8.44 1.867-11.289 5.123l-43.711 49.955v-10.078c0-24.813-20.187-45-45-45s-45 20.187-45 45v10.078l-43.711-49.955c-2.849-3.256-6.964-5.123-11.289-5.123h-80c-8.284 0-15 6.716-15 15s6.716 15 15 15h73.193l56.218 64.25c-5.989 7.42-10.375 16.178-12.645 25.75h-.729c-55.712 0-101.037 45.325-101.037 101.038 0 10.879 1.744 21.628 5.185 31.951l46.468 139.404c7.497 22.494 28.466 37.607 52.177 37.607h6.17v27c0 30.327 24.673 55 55 55s55-24.673 55-55v-27h6.17c23.71 0 44.678-15.113 52.178-37.608l6.916-20.748c19.852 25.263 46.535 43.456 77.426 52.724 1.406.422 2.858.633 4.311.633s2.904-.211 4.311-.633c32.234-9.67 59.892-29.054 79.981-56.054 20.089-27.002 30.707-59.063 30.707-92.717v-85.597c0-8.284-6.716-15-15-15zm-302-75c19.299 0 35 15.701 35 35s-15.701 35-35 35-35-15.701-35-35 15.701-35 35-35zm0-70c8.271 0 15 6.729 15 15v26.766c-4.819-1.143-9.837-1.766-15-1.766s-10.181.623-15 1.766v-26.766c0-8.271 6.729-15 15-15zm25 427c0 13.785-11.215 25-25 25s-25-11.215-25-25v-84c0-13.785 11.215-25 25-25s25 11.215 25 25zm59.887-74.095c-3.408 10.225-12.94 17.095-23.717 17.095h-6.17v-27c0-30.327-24.673-55-55-55s-55 24.673-55 55v27h-6.17c-10.777 0-20.309-6.87-23.717-17.095l-46.467-139.403c-2.419-7.257-3.646-14.815-3.646-22.464 0-39.171 31.867-71.038 71.037-71.038h.729c6.792 28.631 32.556 50 63.234 50s56.442-21.369 63.234-50h.729c20.024 0 38.934 8.525 52.243 22.952-4.532 1.338-9.304 2.048-14.206 2.048-8.284 0-15 6.716-15 15v85.597c0 21.693 4.419 42.721 12.935 62.162zm202.113-107.308c0 54.256-33.971 101.385-85 118.66-51.029-17.275-85-64.404-85-118.66v-71.995c22.701-4.285 42.437-18.2 54.125-38.603h61.75c11.688 20.402 31.424 34.318 54.125 38.603z"/><path d="m428.82 241.109-45.963 45.962-17.678-17.678c-5.857-5.858-15.355-5.858-21.213 0s-5.858 15.355 0 21.213l28.284 28.284c2.929 2.929 6.768 4.394 10.606 4.394s7.678-1.465 10.606-4.394l56.569-56.568c5.858-5.857 5.858-15.355 0-21.213-5.854-5.858-15.352-5.858-21.211 0z"/></g></svg>